<?xml version="1.0" encoding="utf-8"?>
<svg xmlns="http://www.w3.org/2000/svg" xmlns:xlink="http://www.w3.org/1999/xlink" width="645" height="460.75" viewBox="0 0 2580 1843">
<defs>
  <clipPath id="clip930">
    <rect x="0" y="0" width="2580" height="1843"/>
  </clipPath>
</defs>
<path clip-path="url(#clip930)" d="
M0 1843 L2580 1843 L2580 0 L0 0  Z
  " fill="#ffffff" fill-rule="evenodd" fill-opacity="1"/>
<defs>
  <clipPath id="clip931">
    <rect x="516" y="0" width="1807" height="1807"/>
  </clipPath>
</defs>
<path clip-path="url(#clip930)" d="
M145.139 1728.56 L2534.65 1728.56 L2534.65 45.3494 L145.139 45.3494  Z
  " fill="#ffffff" fill-rule="evenodd" fill-opacity="1"/>
<defs>
  <clipPath id="clip932">
    <rect x="145" y="45" width="2391" height="1684"/>
  </clipPath>
</defs>
<polyline clip-path="url(#clip932)" style="stroke:#000000; stroke-width:1.91979; stroke-opacity:0.1; fill:none" points="
  166.761,1728.56 166.761,45.3494 
  "/>
<polyline clip-path="url(#clip932)" style="stroke:#000000; stroke-width:1.91979; stroke-opacity:0.1; fill:none" points="
  626.814,1728.56 626.814,45.3494 
  "/>
<polyline clip-path="url(#clip932)" style="stroke:#000000; stroke-width:1.91979; stroke-opacity:0.1; fill:none" points="
  1086.87,1728.56 1086.87,45.3494 
  "/>
<polyline clip-path="url(#clip932)" style="stroke:#000000; stroke-width:1.91979; stroke-opacity:0.1; fill:none" points="
  1546.92,1728.56 1546.92,45.3494 
  "/>
<polyline clip-path="url(#clip932)" style="stroke:#000000; stroke-width:1.91979; stroke-opacity:0.1; fill:none" points="
  2006.97,1728.56 2006.97,45.3494 
  "/>
<polyline clip-path="url(#clip932)" style="stroke:#000000; stroke-width:1.91979; stroke-opacity:0.1; fill:none" points="
  2467.03,1728.56 2467.03,45.3494 
  "/>
<polyline clip-path="url(#clip932)" style="stroke:#000000; stroke-width:1.91979; stroke-opacity:0.1; fill:none" points="
  145.139,1728.56 2534.65,1728.56 
  "/>
<polyline clip-path="url(#clip932)" style="stroke:#000000; stroke-width:1.91979; stroke-opacity:0.1; fill:none" points="
  145.139,1391.92 2534.65,1391.92 
  "/>
<polyline clip-path="url(#clip932)" style="stroke:#000000; stroke-width:1.91979; stroke-opacity:0.1; fill:none" points="
  145.139,1055.28 2534.65,1055.28 
  "/>
<polyline clip-path="url(#clip932)" style="stroke:#000000; stroke-width:1.91979; stroke-opacity:0.1; fill:none" points="
  145.139,718.634 2534.65,718.634 
  "/>
<polyline clip-path="url(#clip932)" style="stroke:#000000; stroke-width:1.91979; stroke-opacity:0.1; fill:none" points="
  145.139,381.992 2534.65,381.992 
  "/>
<polyline clip-path="url(#clip932)" style="stroke:#000000; stroke-width:1.91979; stroke-opacity:0.1; fill:none" points="
  145.139,45.3494 2534.65,45.3494 
  "/>
<polyline clip-path="url(#clip930)" style="stroke:#000000; stroke-width:3.83958; stroke-opacity:1; fill:none" points="
  145.139,1728.56 2534.65,1728.56 
  "/>
<polyline clip-path="url(#clip930)" style="stroke:#000000; stroke-width:3.83958; stroke-opacity:1; fill:none" points="
  145.139,1728.56 145.139,45.3494 
  "/>
<polyline clip-path="url(#clip930)" style="stroke:#000000; stroke-width:3.83958; stroke-opacity:1; fill:none" points="
  166.761,1728.56 166.761,1708.36 
  "/>
<polyline clip-path="url(#clip930)" style="stroke:#000000; stroke-width:3.83958; stroke-opacity:1; fill:none" points="
  626.814,1728.56 626.814,1708.36 
  "/>
<polyline clip-path="url(#clip930)" style="stroke:#000000; stroke-width:3.83958; stroke-opacity:1; fill:none" points="
  1086.87,1728.56 1086.87,1708.36 
  "/>
<polyline clip-path="url(#clip930)" style="stroke:#000000; stroke-width:3.83958; stroke-opacity:1; fill:none" points="
  1546.92,1728.56 1546.92,1708.36 
  "/>
<polyline clip-path="url(#clip930)" style="stroke:#000000; stroke-width:3.83958; stroke-opacity:1; fill:none" points="
  2006.97,1728.56 2006.97,1708.36 
  "/>
<polyline clip-path="url(#clip930)" style="stroke:#000000; stroke-width:3.83958; stroke-opacity:1; fill:none" points="
  2467.03,1728.56 2467.03,1708.36 
  "/>
<polyline clip-path="url(#clip930)" style="stroke:#000000; stroke-width:3.83958; stroke-opacity:1; fill:none" points="
  145.139,1728.56 173.813,1728.56 
  "/>
<polyline clip-path="url(#clip930)" style="stroke:#000000; stroke-width:3.83958; stroke-opacity:1; fill:none" points="
  145.139,1391.92 173.813,1391.92 
  "/>
<polyline clip-path="url(#clip930)" style="stroke:#000000; stroke-width:3.83958; stroke-opacity:1; fill:none" points="
  145.139,1055.28 173.813,1055.28 
  "/>
<polyline clip-path="url(#clip930)" style="stroke:#000000; stroke-width:3.83958; stroke-opacity:1; fill:none" points="
  145.139,718.634 173.813,718.634 
  "/>
<polyline clip-path="url(#clip930)" style="stroke:#000000; stroke-width:3.83958; stroke-opacity:1; fill:none" points="
  145.139,381.992 173.813,381.992 
  "/>
<polyline clip-path="url(#clip930)" style="stroke:#000000; stroke-width:3.83958; stroke-opacity:1; fill:none" points="
  145.139,45.3494 173.813,45.3494 
  "/>
<path clip-path="url(#clip930)" d="M 0 0 M166.761 1751.05 Q163.295 1751.05 161.54 1754.47 Q159.807 1757.87 159.807 1764.72 Q159.807 1771.54 161.54 1774.96 Q163.295 1778.36 166.761 1778.36 Q170.25 1778.36 171.983 1774.96 Q173.738 1771.54 173.738 1764.72 Q173.738 1757.87 171.983 1754.47 Q170.25 1751.05 166.761 1751.05 M166.761 1747.5 Q172.338 1747.5 175.271 1751.92 Q178.226 1756.32 178.226 1764.72 Q178.226 1773.09 175.271 1777.52 Q172.338 1781.91 166.761 1781.91 Q161.185 1781.91 158.23 1777.52 Q155.297 1773.09 155.297 1764.72 Q155.297 1756.32 158.23 1751.92 Q161.185 1747.5 166.761 1747.5 Z" fill="#000000" fill-rule="evenodd" fill-opacity="1" /><path clip-path="url(#clip930)" d="M 0 0 M604.619 1777.49 L611.95 1777.49 L611.95 1752.18 L603.974 1753.78 L603.974 1749.7 L611.906 1748.1 L616.394 1748.1 L616.394 1777.49 L623.726 1777.49 L623.726 1781.27 L604.619 1781.27 L604.619 1777.49 Z" fill="#000000" fill-rule="evenodd" fill-opacity="1" /><path clip-path="url(#clip930)" d="M 0 0 M638.19 1751.05 Q634.724 1751.05 632.969 1754.47 Q631.236 1757.87 631.236 1764.72 Q631.236 1771.54 632.969 1774.96 Q634.724 1778.36 638.19 1778.36 Q641.678 1778.36 643.411 1774.96 Q645.166 1771.54 645.166 1764.72 Q645.166 1757.87 643.411 1754.47 Q641.678 1751.05 638.19 1751.05 M638.19 1747.5 Q643.767 1747.5 646.699 1751.92 Q649.654 1756.32 649.654 1764.72 Q649.654 1773.09 646.699 1777.52 Q643.767 1781.91 638.19 1781.91 Q632.613 1781.91 629.658 1777.52 Q626.725 1773.09 626.725 1764.72 Q626.725 1756.32 629.658 1751.92 Q632.613 1747.5 638.19 1747.5 Z" fill="#000000" fill-rule="evenodd" fill-opacity="1" /><path clip-path="url(#clip930)" d="M 0 0 M1068.77 1777.49 L1084.43 1777.49 L1084.43 1781.27 L1063.37 1781.27 L1063.37 1777.49 Q1065.93 1774.85 1070.33 1770.4 Q1074.75 1765.94 1075.88 1764.65 Q1078.04 1762.23 1078.88 1760.56 Q1079.75 1758.87 1079.75 1757.25 Q1079.75 1754.61 1077.88 1752.94 Q1076.04 1751.27 1073.06 1751.27 Q1070.95 1751.27 1068.59 1752.01 Q1066.26 1752.74 1063.59 1754.23 L1063.59 1749.7 Q1066.3 1748.61 1068.66 1748.05 Q1071.01 1747.5 1072.97 1747.5 Q1078.12 1747.5 1081.19 1750.07 Q1084.26 1752.65 1084.26 1756.96 Q1084.26 1759.01 1083.48 1760.85 Q1082.72 1762.67 1080.7 1765.16 Q1080.15 1765.81 1077.17 1768.89 Q1074.19 1771.96 1068.77 1777.49 Z" fill="#000000" fill-rule="evenodd" fill-opacity="1" /><path clip-path="url(#clip930)" d="M 0 0 M1098.9 1751.05 Q1095.43 1751.05 1093.68 1754.47 Q1091.94 1757.87 1091.94 1764.72 Q1091.94 1771.54 1093.68 1774.96 Q1095.43 1778.36 1098.9 1778.36 Q1102.39 1778.36 1104.12 1774.96 Q1105.87 1771.54 1105.87 1764.72 Q1105.87 1757.87 1104.12 1754.47 Q1102.39 1751.05 1098.9 1751.05 M1098.9 1747.5 Q1104.48 1747.5 1107.41 1751.92 Q1110.36 1756.32 1110.36 1764.72 Q1110.36 1773.09 1107.41 1777.52 Q1104.48 1781.91 1098.9 1781.91 Q1093.32 1781.91 1090.37 1777.52 Q1087.43 1773.09 1087.43 1764.72 Q1087.43 1756.32 1090.37 1751.92 Q1093.32 1747.5 1098.9 1747.5 Z" fill="#000000" fill-rule="evenodd" fill-opacity="1" /><path clip-path="url(#clip930)" d="M 0 0 M1538.03 1763.38 Q1541.25 1764.07 1543.05 1766.25 Q1544.88 1768.43 1544.88 1771.63 Q1544.88 1776.54 1541.5 1779.23 Q1538.12 1781.91 1531.9 1781.91 Q1529.81 1781.91 1527.59 1781.49 Q1525.39 1781.09 1523.04 1780.27 L1523.04 1775.94 Q1524.9 1777.03 1527.12 1777.58 Q1529.35 1778.14 1531.77 1778.14 Q1535.99 1778.14 1538.19 1776.47 Q1540.41 1774.8 1540.41 1771.63 Q1540.41 1768.69 1538.34 1767.05 Q1536.3 1765.38 1532.63 1765.38 L1528.77 1765.38 L1528.77 1761.69 L1532.81 1761.69 Q1536.12 1761.69 1537.88 1760.38 Q1539.63 1759.05 1539.63 1756.56 Q1539.63 1754.01 1537.81 1752.65 Q1536.01 1751.27 1532.63 1751.27 Q1530.79 1751.27 1528.68 1751.67 Q1526.57 1752.07 1524.04 1752.92 L1524.04 1748.92 Q1526.59 1748.21 1528.81 1747.85 Q1531.06 1747.5 1533.03 1747.5 Q1538.14 1747.5 1541.12 1749.83 Q1544.1 1752.14 1544.1 1756.1 Q1544.1 1758.85 1542.52 1760.76 Q1540.94 1762.65 1538.03 1763.38 Z" fill="#000000" fill-rule="evenodd" fill-opacity="1" /><path clip-path="url(#clip930)" d="M 0 0 M1559.34 1751.05 Q1555.87 1751.05 1554.12 1754.47 Q1552.39 1757.87 1552.39 1764.72 Q1552.39 1771.54 1554.12 1774.96 Q1555.87 1778.36 1559.34 1778.36 Q1562.83 1778.36 1564.56 1774.96 Q1566.32 1771.54 1566.32 1764.72 Q1566.32 1757.87 1564.56 1754.47 Q1562.83 1751.05 1559.34 1751.05 M1559.34 1747.5 Q1564.92 1747.5 1567.85 1751.92 Q1570.8 1756.32 1570.8 1764.72 Q1570.8 1773.09 1567.85 1777.52 Q1564.92 1781.91 1559.34 1781.91 Q1553.76 1781.91 1550.81 1777.52 Q1547.88 1773.09 1547.88 1764.72 Q1547.88 1756.32 1550.81 1751.92 Q1553.76 1747.5 1559.34 1747.5 Z" fill="#000000" fill-rule="evenodd" fill-opacity="1" /><path clip-path="url(#clip930)" d="M 0 0 M1996.9 1752.01 L1985.57 1769.72 L1996.9 1769.72 L1996.9 1752.01 M1995.72 1748.1 L2001.36 1748.1 L2001.36 1769.72 L2006.1 1769.72 L2006.1 1773.45 L2001.36 1773.45 L2001.36 1781.27 L1996.9 1781.27 L1996.9 1773.45 L1981.92 1773.45 L1981.92 1769.12 L1995.72 1748.1 Z" fill="#000000" fill-rule="evenodd" fill-opacity="1" /><path clip-path="url(#clip930)" d="M 0 0 M2020.56 1751.05 Q2017.09 1751.05 2015.34 1754.47 Q2013.61 1757.87 2013.61 1764.72 Q2013.61 1771.54 2015.34 1774.96 Q2017.09 1778.36 2020.56 1778.36 Q2024.05 1778.36 2025.78 1774.96 Q2027.54 1771.54 2027.54 1764.72 Q2027.54 1757.87 2025.78 1754.47 Q2024.05 1751.05 2020.56 1751.05 M2020.56 1747.5 Q2026.14 1747.5 2029.07 1751.92 Q2032.02 1756.32 2032.02 1764.72 Q2032.02 1773.09 2029.07 1777.52 Q2026.14 1781.91 2020.56 1781.91 Q2014.98 1781.91 2012.03 1777.52 Q2009.1 1773.09 2009.1 1764.72 Q2009.1 1756.32 2012.03 1751.92 Q2014.98 1747.5 2020.56 1747.5 Z" fill="#000000" fill-rule="evenodd" fill-opacity="1" /><path clip-path="url(#clip930)" d="M 0 0 M2444.73 1748.1 L2462.35 1748.1 L2462.35 1751.87 L2448.84 1751.87 L2448.84 1760.01 Q2449.82 1759.67 2450.8 1759.52 Q2451.77 1759.34 2452.75 1759.34 Q2458.31 1759.34 2461.55 1762.38 Q2464.79 1765.43 2464.79 1770.63 Q2464.79 1775.98 2461.46 1778.96 Q2458.13 1781.91 2452.06 1781.91 Q2449.97 1781.91 2447.8 1781.56 Q2445.64 1781.2 2443.33 1780.49 L2443.33 1775.98 Q2445.33 1777.07 2447.46 1777.6 Q2449.6 1778.14 2451.97 1778.14 Q2455.82 1778.14 2458.06 1776.12 Q2460.31 1774.09 2460.31 1770.63 Q2460.31 1767.16 2458.06 1765.14 Q2455.82 1763.12 2451.97 1763.12 Q2450.17 1763.12 2448.37 1763.52 Q2446.6 1763.92 2444.73 1764.76 L2444.73 1748.1 Z" fill="#000000" fill-rule="evenodd" fill-opacity="1" /><path clip-path="url(#clip930)" d="M 0 0 M2479.26 1751.05 Q2475.79 1751.05 2474.04 1754.47 Q2472.3 1757.87 2472.3 1764.72 Q2472.3 1771.54 2474.04 1774.96 Q2475.79 1778.36 2479.26 1778.36 Q2482.75 1778.36 2484.48 1774.96 Q2486.23 1771.54 2486.23 1764.72 Q2486.23 1757.87 2484.48 1754.47 Q2482.75 1751.05 2479.26 1751.05 M2479.26 1747.5 Q2484.83 1747.5 2487.77 1751.92 Q2490.72 1756.32 2490.72 1764.72 Q2490.72 1773.09 2487.77 1777.52 Q2484.83 1781.91 2479.26 1781.91 Q2473.68 1781.91 2470.73 1777.52 Q2467.79 1773.09 2467.79 1764.72 Q2467.79 1756.32 2470.73 1751.92 Q2473.68 1747.5 2479.26 1747.5 Z" fill="#000000" fill-rule="evenodd" fill-opacity="1" /><path clip-path="url(#clip930)" d="M 0 0 M72.3922 1714.93 Q68.9262 1714.93 67.171 1718.35 Q65.438 1721.75 65.438 1728.59 Q65.438 1735.42 67.171 1738.84 Q68.9262 1742.24 72.3922 1742.24 Q75.8805 1742.24 77.6135 1738.84 Q79.3687 1735.42 79.3687 1728.59 Q79.3687 1721.75 77.6135 1718.35 Q75.8805 1714.93 72.3922 1714.93 M72.3922 1711.37 Q77.969 1711.37 80.9017 1715.8 Q83.8567 1720.19 83.8567 1728.59 Q83.8567 1736.97 80.9017 1741.39 Q77.969 1745.79 72.3922 1745.79 Q66.8155 1745.79 63.8605 1741.39 Q60.9278 1736.97 60.9278 1728.59 Q60.9278 1720.19 63.8605 1715.8 Q66.8155 1711.37 72.3922 1711.37 Z" fill="#000000" fill-rule="evenodd" fill-opacity="1" /><path clip-path="url(#clip930)" d="M 0 0 M88.7224 1739.5 L93.4104 1739.5 L93.4104 1745.15 L88.7224 1745.15 L88.7224 1739.5 Z" fill="#000000" fill-rule="evenodd" fill-opacity="1" /><path clip-path="url(#clip930)" d="M 0 0 M107.874 1714.93 Q104.408 1714.93 102.653 1718.35 Q100.92 1721.75 100.92 1728.59 Q100.92 1735.42 102.653 1738.84 Q104.408 1742.24 107.874 1742.24 Q111.363 1742.24 113.096 1738.84 Q114.851 1735.42 114.851 1728.59 Q114.851 1721.75 113.096 1718.35 Q111.363 1714.93 107.874 1714.93 M107.874 1711.37 Q113.451 1711.37 116.384 1715.8 Q119.339 1720.19 119.339 1728.59 Q119.339 1736.97 116.384 1741.39 Q113.451 1745.79 107.874 1745.79 Q102.298 1745.79 99.3426 1741.39 Q96.4099 1736.97 96.4099 1728.59 Q96.4099 1720.19 99.3426 1715.8 Q102.298 1711.37 107.874 1711.37 Z" fill="#000000" fill-rule="evenodd" fill-opacity="1" /><path clip-path="url(#clip930)" d="M 0 0 M73.9253 1378.29 Q70.4593 1378.29 68.7041 1381.71 Q66.9711 1385.11 66.9711 1391.95 Q66.9711 1398.77 68.7041 1402.19 Q70.4593 1405.59 73.9253 1405.59 Q77.4135 1405.59 79.1465 1402.19 Q80.9017 1398.77 80.9017 1391.95 Q80.9017 1385.11 79.1465 1381.71 Q77.4135 1378.29 73.9253 1378.29 M73.9253 1374.73 Q79.502 1374.73 82.4348 1379.15 Q85.3898 1383.55 85.3898 1391.95 Q85.3898 1400.33 82.4348 1404.75 Q79.502 1409.15 73.9253 1409.15 Q68.3486 1409.15 65.3936 1404.75 Q62.4608 1400.33 62.4608 1391.95 Q62.4608 1383.55 65.3936 1379.15 Q68.3486 1374.73 73.9253 1374.73 Z" fill="#000000" fill-rule="evenodd" fill-opacity="1" /><path clip-path="url(#clip930)" d="M 0 0 M90.2555 1402.86 L94.9435 1402.86 L94.9435 1408.51 L90.2555 1408.51 L90.2555 1402.86 Z" fill="#000000" fill-rule="evenodd" fill-opacity="1" /><path clip-path="url(#clip930)" d="M 0 0 M103.675 1404.73 L119.339 1404.73 L119.339 1408.51 L98.2762 1408.51 L98.2762 1404.73 Q100.831 1402.08 105.23 1397.64 Q109.652 1393.17 110.785 1391.88 Q112.94 1389.46 113.784 1387.8 Q114.651 1386.11 114.651 1384.49 Q114.651 1381.84 112.785 1380.18 Q110.94 1378.51 107.963 1378.51 Q105.853 1378.51 103.497 1379.24 Q101.165 1379.98 98.4984 1381.46 L98.4984 1376.93 Q101.209 1375.84 103.564 1375.29 Q105.919 1374.73 107.874 1374.73 Q113.029 1374.73 116.095 1377.31 Q119.161 1379.89 119.161 1384.2 Q119.161 1386.24 118.383 1388.09 Q117.628 1389.91 115.606 1392.4 Q115.051 1393.04 112.074 1396.13 Q109.096 1399.2 103.675 1404.73 Z" fill="#000000" fill-rule="evenodd" fill-opacity="1" /><path clip-path="url(#clip930)" d="M 0 0 M71.9257 1041.64 Q68.4597 1041.64 66.7044 1045.07 Q64.9714 1048.47 64.9714 1055.31 Q64.9714 1062.13 66.7044 1065.55 Q68.4597 1068.95 71.9257 1068.95 Q75.4139 1068.95 77.1469 1065.55 Q78.9021 1062.13 78.9021 1055.31 Q78.9021 1048.47 77.1469 1045.07 Q75.4139 1041.64 71.9257 1041.64 M71.9257 1038.09 Q77.5024 1038.09 80.4351 1042.51 Q83.3901 1046.91 83.3901 1055.31 Q83.3901 1063.69 80.4351 1068.11 Q77.5024 1072.51 71.9257 1072.51 Q66.349 1072.51 63.394 1068.11 Q60.4612 1063.69 60.4612 1055.31 Q60.4612 1046.91 63.394 1042.51 Q66.349 1038.09 71.9257 1038.09 Z" fill="#000000" fill-rule="evenodd" fill-opacity="1" /><path clip-path="url(#clip930)" d="M 0 0 M88.2559 1066.22 L92.9439 1066.22 L92.9439 1071.86 L88.2559 1071.86 L88.2559 1066.22 Z" fill="#000000" fill-rule="evenodd" fill-opacity="1" /><path clip-path="url(#clip930)" d="M 0 0 M110.141 1042.6 L98.8094 1060.31 L110.141 1060.31 L110.141 1042.6 M108.963 1038.69 L114.606 1038.69 L114.606 1060.31 L119.339 1060.31 L119.339 1064.04 L114.606 1064.04 L114.606 1071.86 L110.141 1071.86 L110.141 1064.04 L95.1657 1064.04 L95.1657 1059.71 L108.963 1038.69 Z" fill="#000000" fill-rule="evenodd" fill-opacity="1" /><path clip-path="url(#clip930)" d="M 0 0 M72.2367 705.002 Q68.7707 705.002 67.0155 708.424 Q65.2825 711.824 65.2825 718.667 Q65.2825 725.489 67.0155 728.91 Q68.7707 732.31 72.2367 732.31 Q75.7249 732.31 77.4579 728.91 Q79.2132 725.489 79.2132 718.667 Q79.2132 711.824 77.4579 708.424 Q75.7249 705.002 72.2367 705.002 M72.2367 701.447 Q77.8134 701.447 80.7462 705.869 Q83.7012 710.268 83.7012 718.667 Q83.7012 727.044 80.7462 731.466 Q77.8134 735.865 72.2367 735.865 Q66.66 735.865 63.705 731.466 Q60.7722 727.044 60.7722 718.667 Q60.7722 710.268 63.705 705.869 Q66.66 701.447 72.2367 701.447 Z" fill="#000000" fill-rule="evenodd" fill-opacity="1" /><path clip-path="url(#clip930)" d="M 0 0 M88.5669 729.577 L93.2549 729.577 L93.2549 735.221 L88.5669 735.221 L88.5669 729.577 Z" fill="#000000" fill-rule="evenodd" fill-opacity="1" /><path clip-path="url(#clip930)" d="M 0 0 M108.274 716.845 Q105.253 716.845 103.475 718.912 Q101.72 720.978 101.72 724.578 Q101.72 728.155 103.475 730.244 Q105.253 732.31 108.274 732.31 Q111.296 732.31 113.051 730.244 Q114.829 728.155 114.829 724.578 Q114.829 720.978 113.051 718.912 Q111.296 716.845 108.274 716.845 M117.184 702.78 L117.184 706.869 Q115.495 706.069 113.762 705.646 Q112.051 705.224 110.363 705.224 Q105.919 705.224 103.564 708.224 Q101.231 711.224 100.898 717.29 Q102.209 715.356 104.186 714.334 Q106.164 713.29 108.541 713.29 Q113.54 713.29 116.428 716.334 Q119.339 719.356 119.339 724.578 Q119.339 729.688 116.317 732.777 Q113.296 735.865 108.274 735.865 Q102.52 735.865 99.4759 731.466 Q96.4321 727.044 96.4321 718.667 Q96.4321 710.801 100.165 706.135 Q103.897 701.447 110.185 701.447 Q111.874 701.447 113.584 701.78 Q115.317 702.114 117.184 702.78 Z" fill="#000000" fill-rule="evenodd" fill-opacity="1" /><path clip-path="url(#clip930)" d="M 0 0 M72.4811 368.36 Q69.0151 368.36 67.2599 371.782 Q65.5269 375.181 65.5269 382.025 Q65.5269 388.846 67.2599 392.268 Q69.0151 395.668 72.4811 395.668 Q75.9693 395.668 77.7023 392.268 Q79.4576 388.846 79.4576 382.025 Q79.4576 375.181 77.7023 371.782 Q75.9693 368.36 72.4811 368.36 M72.4811 364.805 Q78.0578 364.805 80.9906 369.226 Q83.9456 373.626 83.9456 382.025 Q83.9456 390.402 80.9906 394.824 Q78.0578 399.223 72.4811 399.223 Q66.9044 399.223 63.9494 394.824 Q61.0166 390.402 61.0166 382.025 Q61.0166 373.626 63.9494 369.226 Q66.9044 364.805 72.4811 364.805 Z" fill="#000000" fill-rule="evenodd" fill-opacity="1" /><path clip-path="url(#clip930)" d="M 0 0 M88.8113 392.935 L93.4993 392.935 L93.4993 398.579 L88.8113 398.579 L88.8113 392.935 Z" fill="#000000" fill-rule="evenodd" fill-opacity="1" /><path clip-path="url(#clip930)" d="M 0 0 M107.963 382.825 Q104.764 382.825 102.92 384.536 Q101.098 386.247 101.098 389.246 Q101.098 392.246 102.92 393.957 Q104.764 395.668 107.963 395.668 Q111.163 395.668 113.007 393.957 Q114.851 392.224 114.851 389.246 Q114.851 386.247 113.007 384.536 Q111.185 382.825 107.963 382.825 M103.475 380.914 Q100.587 380.203 98.9649 378.225 Q97.3652 376.248 97.3652 373.404 Q97.3652 369.426 100.187 367.116 Q103.031 364.805 107.963 364.805 Q112.918 364.805 115.74 367.116 Q118.561 369.426 118.561 373.404 Q118.561 376.248 116.939 378.225 Q115.34 380.203 112.473 380.914 Q115.717 381.669 117.517 383.869 Q119.339 386.069 119.339 389.246 Q119.339 394.068 116.384 396.646 Q113.451 399.223 107.963 399.223 Q102.475 399.223 99.5204 396.646 Q96.5876 394.068 96.5876 389.246 Q96.5876 386.069 98.4095 383.869 Q100.231 381.669 103.475 380.914 M101.831 373.826 Q101.831 376.403 103.431 377.848 Q105.053 379.292 107.963 379.292 Q110.852 379.292 112.473 377.848 Q114.118 376.403 114.118 373.826 Q114.118 371.248 112.473 369.804 Q110.852 368.36 107.963 368.36 Q105.053 368.36 103.431 369.804 Q101.831 371.248 101.831 373.826 Z" fill="#000000" fill-rule="evenodd" fill-opacity="1" /><path clip-path="url(#clip930)" d="M 0 0 M64.7493 58.1591 L72.0812 58.1591 L72.0812 32.8508 L64.1049 34.4507 L64.1049 30.3622 L72.0368 28.7624 L76.5248 28.7624 L76.5248 58.1591 L83.8567 58.1591 L83.8567 61.9364 L64.7493 61.9364 L64.7493 58.1591 Z" fill="#000000" fill-rule="evenodd" fill-opacity="1" /><path clip-path="url(#clip930)" d="M 0 0 M88.7224 56.2926 L93.4104 56.2926 L93.4104 61.9364 L88.7224 61.9364 L88.7224 56.2926 Z" fill="#000000" fill-rule="evenodd" fill-opacity="1" /><path clip-path="url(#clip930)" d="M 0 0 M107.874 31.7176 Q104.408 31.7176 102.653 35.1395 Q100.92 38.5391 100.92 45.3827 Q100.92 52.2042 102.653 55.626 Q104.408 59.0256 107.874 59.0256 Q111.363 59.0256 113.096 55.626 Q114.851 52.2042 114.851 45.3827 Q114.851 38.5391 113.096 35.1395 Q111.363 31.7176 107.874 31.7176 M107.874 28.1625 Q113.451 28.1625 116.384 32.5842 Q119.339 36.9837 119.339 45.3827 Q119.339 53.7596 116.384 58.1813 Q113.451 62.5808 107.874 62.5808 Q102.298 62.5808 99.3426 58.1813 Q96.4099 53.7596 96.4099 45.3827 Q96.4099 36.9837 99.3426 32.5842 Q102.298 28.1625 107.874 28.1625 Z" fill="#000000" fill-rule="evenodd" fill-opacity="1" /><polyline clip-path="url(#clip932)" style="stroke:#009af9; stroke-width:3.83958; stroke-opacity:1; fill:none" points="
  212.767,45.3494 258.772,45.92 304.777,45.7549 396.788,47.2966 488.798,52.5552 626.814,66.7167 856.841,107.25 1086.87,175.456 2467.03,1176.61 
  "/>
<path clip-path="url(#clip930)" d="
M1524.43 258.216 L2457.25 258.216 L2457.25 142.107 L1524.43 142.107  Z
  " fill="#ffffff" fill-rule="evenodd" fill-opacity="1"/>
<polyline clip-path="url(#clip930)" style="stroke:#000000; stroke-width:3.83958; stroke-opacity:1; fill:none" points="
  1524.43,258.216 2457.25,258.216 2457.25,142.107 1524.43,142.107 1524.43,258.216 
  "/>
<polyline clip-path="url(#clip930)" style="stroke:#009af9; stroke-width:3.83958; stroke-opacity:1; fill:none" points="
  1550.23,200.161 1705.03,200.161 
  "/>
<path clip-path="url(#clip930)" d="M 0 0 M1735.32 187.263 L1735.32 199.728 L1740.96 199.728 Q1744.09 199.728 1745.8 198.106 Q1747.51 196.484 1747.51 193.484 Q1747.51 190.507 1745.8 188.885 Q1744.09 187.263 1740.96 187.263 L1735.32 187.263 M1730.83 183.574 L1740.96 183.574 Q1746.54 183.574 1749.38 186.107 Q1752.25 188.618 1752.25 193.484 Q1752.25 198.395 1749.38 200.906 Q1746.54 203.417 1740.96 203.417 L1735.32 203.417 L1735.32 216.748 L1730.83 216.748 L1730.83 183.574 Z" fill="#000000" fill-rule="evenodd" fill-opacity="1" /><path clip-path="url(#clip930)" d="M 0 0 M1770.15 195.684 Q1769.46 195.284 1768.64 195.106 Q1767.84 194.906 1766.87 194.906 Q1763.4 194.906 1761.53 197.173 Q1759.69 199.417 1759.69 203.639 L1759.69 216.748 L1755.58 216.748 L1755.58 191.862 L1759.69 191.862 L1759.69 195.729 Q1760.98 193.462 1763.04 192.373 Q1765.11 191.262 1768.07 191.262 Q1768.49 191.262 1769 191.329 Q1769.51 191.374 1770.13 191.485 L1770.15 195.684 Z" fill="#000000" fill-rule="evenodd" fill-opacity="1" /><path clip-path="url(#clip930)" d="M 0 0 M1783.08 194.729 Q1779.8 194.729 1777.89 197.306 Q1775.97 199.861 1775.97 204.328 Q1775.97 208.794 1777.86 211.371 Q1779.77 213.927 1783.08 213.927 Q1786.35 213.927 1788.26 211.349 Q1790.17 208.772 1790.17 204.328 Q1790.17 199.906 1788.26 197.328 Q1786.35 194.729 1783.08 194.729 M1783.08 191.262 Q1788.42 191.262 1791.46 194.729 Q1794.5 198.195 1794.5 204.328 Q1794.5 210.438 1791.46 213.927 Q1788.42 217.393 1783.08 217.393 Q1777.73 217.393 1774.69 213.927 Q1771.66 210.438 1771.66 204.328 Q1771.66 198.195 1774.69 194.729 Q1777.73 191.262 1783.08 191.262 Z" fill="#000000" fill-rule="evenodd" fill-opacity="1" /><path clip-path="url(#clip930)" d="M 0 0 M1818.08 191.862 L1809.08 203.972 L1818.54 216.748 L1813.72 216.748 L1806.48 206.972 L1799.24 216.748 L1794.42 216.748 L1804.08 203.728 L1795.24 191.862 L1800.06 191.862 L1806.66 200.728 L1813.26 191.862 L1818.08 191.862 Z" fill="#000000" fill-rule="evenodd" fill-opacity="1" /><path clip-path="url(#clip930)" d="M 0 0 M1822.83 191.862 L1826.92 191.862 L1826.92 216.748 L1822.83 216.748 L1822.83 191.862 M1822.83 182.175 L1826.92 182.175 L1826.92 187.352 L1822.83 187.352 L1822.83 182.175 Z" fill="#000000" fill-rule="evenodd" fill-opacity="1" /><path clip-path="url(#clip930)" d="M 0 0 M1850.58 196.64 Q1852.12 193.884 1854.25 192.573 Q1856.38 191.262 1859.27 191.262 Q1863.16 191.262 1865.27 193.995 Q1867.38 196.706 1867.38 201.728 L1867.38 216.748 L1863.27 216.748 L1863.27 201.861 Q1863.27 198.284 1862 196.551 Q1860.74 194.818 1858.14 194.818 Q1854.96 194.818 1853.12 196.928 Q1851.27 199.039 1851.27 202.683 L1851.27 216.748 L1847.16 216.748 L1847.16 201.861 Q1847.16 198.262 1845.89 196.551 Q1844.63 194.818 1841.98 194.818 Q1838.85 194.818 1837.01 196.951 Q1835.16 199.062 1835.16 202.683 L1835.16 216.748 L1831.05 216.748 L1831.05 191.862 L1835.16 191.862 L1835.16 195.729 Q1836.56 193.44 1838.52 192.351 Q1840.47 191.262 1843.16 191.262 Q1845.87 191.262 1847.76 192.64 Q1849.67 194.018 1850.58 196.64 Z" fill="#000000" fill-rule="evenodd" fill-opacity="1" /><path clip-path="url(#clip930)" d="M 0 0 M1871.67 191.862 L1875.76 191.862 L1875.76 216.748 L1871.67 216.748 L1871.67 191.862 M1871.67 182.175 L1875.76 182.175 L1875.76 187.352 L1871.67 187.352 L1871.67 182.175 Z" fill="#000000" fill-rule="evenodd" fill-opacity="1" /><path clip-path="url(#clip930)" d="M 0 0 M1884.09 184.796 L1884.09 191.862 L1892.51 191.862 L1892.51 195.04 L1884.09 195.04 L1884.09 208.549 Q1884.09 211.593 1884.91 212.46 Q1885.75 213.327 1888.31 213.327 L1892.51 213.327 L1892.51 216.748 L1888.31 216.748 Q1883.58 216.748 1881.78 214.993 Q1879.98 213.215 1879.98 208.549 L1879.98 195.04 L1876.98 195.04 L1876.98 191.862 L1879.98 191.862 L1879.98 184.796 L1884.09 184.796 Z" fill="#000000" fill-rule="evenodd" fill-opacity="1" /><path clip-path="url(#clip930)" d="M 0 0 M1907.15 219.059 Q1905.42 223.503 1903.77 224.859 Q1902.13 226.214 1899.37 226.214 L1896.11 226.214 L1896.11 222.792 L1898.51 222.792 Q1900.2 222.792 1901.13 221.992 Q1902.06 221.192 1903.19 218.215 L1903.93 216.348 L1893.86 191.862 L1898.2 191.862 L1905.97 211.327 L1913.75 191.862 L1918.08 191.862 L1907.15 219.059 Z" fill="#000000" fill-rule="evenodd" fill-opacity="1" /><path clip-path="url(#clip930)" d="M 0 0 M1919.5 202.461 L1931.48 202.461 L1931.48 206.105 L1919.5 206.105 L1919.5 202.461 Z" fill="#000000" fill-rule="evenodd" fill-opacity="1" /><path clip-path="url(#clip930)" d="M 0 0 M1933.39 191.862 L1937.48 191.862 L1942.59 211.282 L1947.68 191.862 L1952.5 191.862 L1957.61 211.282 L1962.69 191.862 L1966.78 191.862 L1960.27 216.748 L1955.45 216.748 L1950.1 196.351 L1944.72 216.748 L1939.9 216.748 L1933.39 191.862 Z" fill="#000000" fill-rule="evenodd" fill-opacity="1" /><path clip-path="url(#clip930)" d="M 0 0 M1992.36 203.283 L1992.36 205.283 L1973.56 205.283 Q1973.83 209.505 1976.09 211.727 Q1978.38 213.927 1982.45 213.927 Q1984.8 213.927 1987 213.349 Q1989.22 212.771 1991.4 211.616 L1991.4 215.482 Q1989.2 216.415 1986.89 216.904 Q1984.58 217.393 1982.2 217.393 Q1976.25 217.393 1972.76 213.927 Q1969.29 210.46 1969.29 204.55 Q1969.29 198.439 1972.58 194.862 Q1975.89 191.262 1981.49 191.262 Q1986.51 191.262 1989.42 194.506 Q1992.36 197.728 1992.36 203.283 M1988.27 202.083 Q1988.22 198.728 1986.38 196.728 Q1984.56 194.729 1981.54 194.729 Q1978.11 194.729 1976.05 196.662 Q1974 198.595 1973.69 202.106 L1988.27 202.083 Z" fill="#000000" fill-rule="evenodd" fill-opacity="1" /><path clip-path="url(#clip930)" d="M 0 0 M1996.64 191.862 L2000.73 191.862 L2000.73 216.748 L1996.64 216.748 L1996.64 191.862 M1996.64 182.175 L2000.73 182.175 L2000.73 187.352 L1996.64 187.352 L1996.64 182.175 Z" fill="#000000" fill-rule="evenodd" fill-opacity="1" /><path clip-path="url(#clip930)" d="M 0 0 M2021.39 204.017 Q2021.39 199.573 2019.55 197.128 Q2017.73 194.684 2014.42 194.684 Q2011.13 194.684 2009.29 197.128 Q2007.46 199.573 2007.46 204.017 Q2007.46 208.438 2009.29 210.882 Q2011.13 213.327 2014.42 213.327 Q2017.73 213.327 2019.55 210.882 Q2021.39 208.438 2021.39 204.017 M2025.48 213.66 Q2025.48 220.015 2022.66 223.103 Q2019.84 226.214 2014.02 226.214 Q2011.86 226.214 2009.95 225.881 Q2008.04 225.57 2006.24 224.903 L2006.24 220.926 Q2008.04 221.903 2009.8 222.37 Q2011.55 222.837 2013.37 222.837 Q2017.4 222.837 2019.39 220.726 Q2021.39 218.637 2021.39 214.393 L2021.39 212.371 Q2020.13 214.571 2018.15 215.66 Q2016.17 216.748 2013.42 216.748 Q2008.84 216.748 2006.04 213.26 Q2003.24 209.771 2003.24 204.017 Q2003.24 198.239 2006.04 194.751 Q2008.84 191.262 2013.42 191.262 Q2016.17 191.262 2018.15 192.351 Q2020.13 193.44 2021.39 195.64 L2021.39 191.862 L2025.48 191.862 L2025.48 213.66 Z" fill="#000000" fill-rule="evenodd" fill-opacity="1" /><path clip-path="url(#clip930)" d="M 0 0 M2050.46 201.728 L2050.46 216.748 L2046.37 216.748 L2046.37 201.861 Q2046.37 198.328 2044.99 196.573 Q2043.61 194.818 2040.86 194.818 Q2037.55 194.818 2035.64 196.928 Q2033.73 199.039 2033.73 202.683 L2033.73 216.748 L2029.61 216.748 L2029.61 182.175 L2033.73 182.175 L2033.73 195.729 Q2035.19 193.484 2037.17 192.373 Q2039.17 191.262 2041.77 191.262 Q2046.06 191.262 2048.26 193.929 Q2050.46 196.573 2050.46 201.728 Z" fill="#000000" fill-rule="evenodd" fill-opacity="1" /><path clip-path="url(#clip930)" d="M 0 0 M2058.79 184.796 L2058.79 191.862 L2067.21 191.862 L2067.21 195.04 L2058.79 195.04 L2058.79 208.549 Q2058.79 211.593 2059.61 212.46 Q2060.45 213.327 2063.01 213.327 L2067.21 213.327 L2067.21 216.748 L2063.01 216.748 Q2058.28 216.748 2056.48 214.993 Q2054.68 213.215 2054.68 208.549 L2054.68 195.04 L2051.68 195.04 L2051.68 191.862 L2054.68 191.862 L2054.68 184.796 L2058.79 184.796 Z" fill="#000000" fill-rule="evenodd" fill-opacity="1" /><path clip-path="url(#clip930)" d="M 0 0 M2092.78 203.283 L2092.78 205.283 L2073.98 205.283 Q2074.25 209.505 2076.52 211.727 Q2078.81 213.927 2082.87 213.927 Q2085.23 213.927 2087.43 213.349 Q2089.65 212.771 2091.83 211.616 L2091.83 215.482 Q2089.63 216.415 2087.32 216.904 Q2085 217.393 2082.63 217.393 Q2076.67 217.393 2073.18 213.927 Q2069.72 210.46 2069.72 204.55 Q2069.72 198.439 2073.01 194.862 Q2076.32 191.262 2081.92 191.262 Q2086.94 191.262 2089.85 194.506 Q2092.78 197.728 2092.78 203.283 M2088.69 202.083 Q2088.65 198.728 2086.8 196.728 Q2084.98 194.729 2081.96 194.729 Q2078.54 194.729 2076.47 196.662 Q2074.43 198.595 2074.12 202.106 L2088.69 202.083 Z" fill="#000000" fill-rule="evenodd" fill-opacity="1" /><path clip-path="url(#clip930)" d="M 0 0 M2113.44 195.64 L2113.44 182.175 L2117.53 182.175 L2117.53 216.748 L2113.44 216.748 L2113.44 213.016 Q2112.15 215.237 2110.18 216.326 Q2108.22 217.393 2105.47 217.393 Q2100.96 217.393 2098.11 213.793 Q2095.29 210.194 2095.29 204.328 Q2095.29 198.462 2098.11 194.862 Q2100.96 191.262 2105.47 191.262 Q2108.22 191.262 2110.18 192.351 Q2112.15 193.418 2113.44 195.64 M2099.51 204.328 Q2099.51 208.838 2101.36 211.416 Q2103.22 213.971 2106.47 213.971 Q2109.71 213.971 2111.58 211.416 Q2113.44 208.838 2113.44 204.328 Q2113.44 199.817 2111.58 197.262 Q2109.71 194.684 2106.47 194.684 Q2103.22 194.684 2101.36 197.262 Q2099.51 199.817 2099.51 204.328 Z" fill="#000000" fill-rule="evenodd" fill-opacity="1" /><path clip-path="url(#clip930)" d="M 0 0 M2154.15 204.328 Q2154.15 199.817 2152.28 197.262 Q2150.44 194.684 2147.19 194.684 Q2143.95 194.684 2142.08 197.262 Q2140.24 199.817 2140.24 204.328 Q2140.24 208.838 2142.08 211.416 Q2143.95 213.971 2147.19 213.971 Q2150.44 213.971 2152.28 211.416 Q2154.15 208.838 2154.15 204.328 M2140.24 195.64 Q2141.53 193.418 2143.48 192.351 Q2145.46 191.262 2148.19 191.262 Q2152.72 191.262 2155.55 194.862 Q2158.39 198.462 2158.39 204.328 Q2158.39 210.194 2155.55 213.793 Q2152.72 217.393 2148.19 217.393 Q2145.46 217.393 2143.48 216.326 Q2141.53 215.237 2140.24 213.016 L2140.24 216.748 L2136.13 216.748 L2136.13 182.175 L2140.24 182.175 L2140.24 195.64 Z" fill="#000000" fill-rule="evenodd" fill-opacity="1" /><path clip-path="url(#clip930)" d="M 0 0 M2183.96 203.283 L2183.96 205.283 L2165.17 205.283 Q2165.43 209.505 2167.7 211.727 Q2169.99 213.927 2174.05 213.927 Q2176.41 213.927 2178.61 213.349 Q2180.83 212.771 2183.01 211.616 L2183.01 215.482 Q2180.81 216.415 2178.5 216.904 Q2176.19 217.393 2173.81 217.393 Q2167.86 217.393 2164.37 213.927 Q2160.9 210.46 2160.9 204.55 Q2160.9 198.439 2164.19 194.862 Q2167.5 191.262 2173.1 191.262 Q2178.12 191.262 2181.03 194.506 Q2183.96 197.728 2183.96 203.283 M2179.88 202.083 Q2179.83 198.728 2177.99 196.728 Q2176.16 194.729 2173.14 194.729 Q2169.72 194.729 2167.66 196.662 Q2165.61 198.595 2165.3 202.106 L2179.88 202.083 Z" fill="#000000" fill-rule="evenodd" fill-opacity="1" /><path clip-path="url(#clip930)" d="M 0 0 M2192.29 184.796 L2192.29 191.862 L2200.72 191.862 L2200.72 195.04 L2192.29 195.04 L2192.29 208.549 Q2192.29 211.593 2193.12 212.46 Q2193.96 213.327 2196.52 213.327 L2200.72 213.327 L2200.72 216.748 L2196.52 216.748 Q2191.78 216.748 2189.98 214.993 Q2188.18 213.215 2188.18 208.549 L2188.18 195.04 L2185.19 195.04 L2185.19 191.862 L2188.18 191.862 L2188.18 184.796 L2192.29 184.796 Z" fill="#000000" fill-rule="evenodd" fill-opacity="1" /><path clip-path="url(#clip930)" d="M 0 0 M2202.63 191.862 L2206.71 191.862 L2211.82 211.282 L2216.91 191.862 L2221.73 191.862 L2226.84 211.282 L2231.93 191.862 L2236.02 191.862 L2229.51 216.748 L2224.69 216.748 L2219.33 196.351 L2213.96 216.748 L2209.14 216.748 L2202.63 191.862 Z" fill="#000000" fill-rule="evenodd" fill-opacity="1" /><path clip-path="url(#clip930)" d="M 0 0 M2261.59 203.283 L2261.59 205.283 L2242.8 205.283 Q2243.06 209.505 2245.33 211.727 Q2247.62 213.927 2251.68 213.927 Q2254.04 213.927 2256.24 213.349 Q2258.46 212.771 2260.64 211.616 L2260.64 215.482 Q2258.44 216.415 2256.13 216.904 Q2253.82 217.393 2251.44 217.393 Q2245.48 217.393 2242 213.927 Q2238.53 210.46 2238.53 204.55 Q2238.53 198.439 2241.82 194.862 Q2245.13 191.262 2250.73 191.262 Q2255.75 191.262 2258.66 194.506 Q2261.59 197.728 2261.59 203.283 M2257.5 202.083 Q2257.46 198.728 2255.62 196.728 Q2253.79 194.729 2250.77 194.729 Q2247.35 194.729 2245.28 196.662 Q2243.24 198.595 2242.93 202.106 L2257.5 202.083 Z" fill="#000000" fill-rule="evenodd" fill-opacity="1" /><path clip-path="url(#clip930)" d="M 0 0 M2287.17 203.283 L2287.17 205.283 L2268.37 205.283 Q2268.64 209.505 2270.9 211.727 Q2273.19 213.927 2277.26 213.927 Q2279.61 213.927 2281.81 213.349 Q2284.03 212.771 2286.21 211.616 L2286.21 215.482 Q2284.01 216.415 2281.7 216.904 Q2279.39 217.393 2277.01 217.393 Q2271.06 217.393 2267.57 213.927 Q2264.1 210.46 2264.1 204.55 Q2264.1 198.439 2267.39 194.862 Q2270.7 191.262 2276.3 191.262 Q2281.32 191.262 2284.23 194.506 Q2287.17 197.728 2287.17 203.283 M2283.08 202.083 Q2283.03 198.728 2281.19 196.728 Q2279.37 194.729 2276.35 194.729 Q2272.92 194.729 2270.86 196.662 Q2268.81 198.595 2268.5 202.106 L2283.08 202.083 Z" fill="#000000" fill-rule="evenodd" fill-opacity="1" /><path clip-path="url(#clip930)" d="M 0 0 M2312.14 201.728 L2312.14 216.748 L2308.05 216.748 L2308.05 201.861 Q2308.05 198.328 2306.67 196.573 Q2305.3 194.818 2302.54 194.818 Q2299.23 194.818 2297.32 196.928 Q2295.41 199.039 2295.41 202.683 L2295.41 216.748 L2291.3 216.748 L2291.3 191.862 L2295.41 191.862 L2295.41 195.729 Q2296.87 193.484 2298.85 192.373 Q2300.85 191.262 2303.45 191.262 Q2307.74 191.262 2309.94 193.929 Q2312.14 196.573 2312.14 201.728 Z" fill="#000000" fill-rule="evenodd" fill-opacity="1" /><path clip-path="url(#clip930)" d="M 0 0 M2337.11 201.728 L2337.11 216.748 L2333.02 216.748 L2333.02 201.861 Q2333.02 198.328 2331.65 196.573 Q2330.27 194.818 2327.51 194.818 Q2324.2 194.818 2322.29 196.928 Q2320.38 199.039 2320.38 202.683 L2320.38 216.748 L2316.27 216.748 L2316.27 191.862 L2320.38 191.862 L2320.38 195.729 Q2321.85 193.484 2323.83 192.373 Q2325.82 191.262 2328.42 191.262 Q2332.71 191.262 2334.91 193.929 Q2337.11 196.573 2337.11 201.728 Z" fill="#000000" fill-rule="evenodd" fill-opacity="1" /><path clip-path="url(#clip930)" d="M 0 0 M2362.68 203.283 L2362.68 205.283 L2343.89 205.283 Q2344.15 209.505 2346.42 211.727 Q2348.71 213.927 2352.78 213.927 Q2355.13 213.927 2357.33 213.349 Q2359.55 212.771 2361.73 211.616 L2361.73 215.482 Q2359.53 216.415 2357.22 216.904 Q2354.91 217.393 2352.53 217.393 Q2346.58 217.393 2343.09 213.927 Q2339.62 210.46 2339.62 204.55 Q2339.62 198.439 2342.91 194.862 Q2346.22 191.262 2351.82 191.262 Q2356.84 191.262 2359.75 194.506 Q2362.68 197.728 2362.68 203.283 M2358.6 202.083 Q2358.55 198.728 2356.71 196.728 Q2354.89 194.729 2351.86 194.729 Q2348.44 194.729 2346.38 196.662 Q2344.33 198.595 2344.02 202.106 L2358.6 202.083 Z" fill="#000000" fill-rule="evenodd" fill-opacity="1" /><path clip-path="url(#clip930)" d="M 0 0 M2382.84 192.596 L2382.84 196.462 Q2381.1 195.573 2379.24 195.129 Q2377.37 194.684 2375.37 194.684 Q2372.33 194.684 2370.79 195.617 Q2369.28 196.551 2369.28 198.417 Q2369.28 199.839 2370.37 200.661 Q2371.46 201.461 2374.75 202.195 L2376.15 202.506 Q2380.5 203.439 2382.33 205.15 Q2384.17 206.838 2384.17 209.883 Q2384.17 213.349 2381.41 215.371 Q2378.68 217.393 2373.88 217.393 Q2371.88 217.393 2369.71 216.993 Q2367.55 216.615 2365.15 215.837 L2365.15 211.616 Q2367.42 212.793 2369.62 213.393 Q2371.82 213.971 2373.97 213.971 Q2376.86 213.971 2378.41 212.993 Q2379.97 211.993 2379.97 210.194 Q2379.97 208.527 2378.84 207.638 Q2377.73 206.75 2373.93 205.927 L2372.5 205.594 Q2368.71 204.794 2367.02 203.15 Q2365.33 201.483 2365.33 198.595 Q2365.33 195.084 2367.82 193.173 Q2370.31 191.262 2374.88 191.262 Q2377.15 191.262 2379.15 191.596 Q2381.15 191.929 2382.84 192.596 Z" fill="#000000" fill-rule="evenodd" fill-opacity="1" /><path clip-path="url(#clip930)" d="M 0 0 M2404.32 192.596 L2404.32 196.462 Q2402.59 195.573 2400.72 195.129 Q2398.86 194.684 2396.86 194.684 Q2393.81 194.684 2392.28 195.617 Q2390.77 196.551 2390.77 198.417 Q2390.77 199.839 2391.86 200.661 Q2392.95 201.461 2396.23 202.195 L2397.63 202.506 Q2401.99 203.439 2403.81 205.15 Q2405.65 206.838 2405.65 209.883 Q2405.65 213.349 2402.9 215.371 Q2400.17 217.393 2395.37 217.393 Q2393.37 217.393 2391.19 216.993 Q2389.04 216.615 2386.64 215.837 L2386.64 211.616 Q2388.9 212.793 2391.1 213.393 Q2393.3 213.971 2395.46 213.971 Q2398.34 213.971 2399.9 212.993 Q2401.45 211.993 2401.45 210.194 Q2401.45 208.527 2400.32 207.638 Q2399.21 206.75 2395.41 205.927 L2393.99 205.594 Q2390.19 204.794 2388.5 203.15 Q2386.81 201.483 2386.81 198.595 Q2386.81 195.084 2389.3 193.173 Q2391.79 191.262 2396.37 191.262 Q2398.63 191.262 2400.63 191.596 Q2402.63 191.929 2404.32 192.596 Z" fill="#000000" fill-rule="evenodd" fill-opacity="1" /></svg>
